<svg width="53" height="53" viewBox="0 0 53 53" xmlns="http://www.w3.org/2000/svg">
<path d="M26.5 0.687489C31.6052 0.687489 36.5958 2.20137 40.8406 5.03768C45.0855 7.87399 48.3939 11.9054 50.3476 16.622C52.3013 21.3386 52.8125 26.5286 51.8165 31.5358C50.8205 36.5429 48.3621 41.1422 44.7522 44.7522C41.1422 48.3621 36.5429 50.8205 31.5358 51.8165C26.5286 52.8125 21.3386 52.3013 16.622 50.3476C11.9054 48.3939 7.87399 45.0855 5.03768 40.8406C2.20137 36.5958 0.687489 31.6052 0.687489 26.5C0.695297 19.6565 3.41733 13.0955 8.25642 8.25642C13.0955 3.41733 19.6565 0.695297 26.5 0.687489ZM26.5 48.625C30.8759 48.625 35.1535 47.3274 38.792 44.8963C42.4304 42.4651 45.2662 39.0097 46.9408 34.9669C48.6154 30.924 49.0536 26.4754 48.1999 22.1836C47.3462 17.8918 45.239 13.9495 42.1447 10.8553C39.0505 7.76102 35.1082 5.65382 30.8164 4.80012C26.5245 3.94642 22.0759 4.38457 18.0331 6.05915C13.9903 7.73375 10.5349 10.5696 8.10373 14.208C5.6726 17.8464 4.37499 22.1241 4.37499 26.5C4.38182 32.3658 6.71503 37.9894 10.8628 42.1372C15.0106 46.2849 20.6342 48.6182 26.5 48.625Z" fill="#1B4DB1"/>
</svg>
