<svg width="53" height="53" viewBox="0 0 53 53" xmlns="http://www.w3.org/2000/svg">
<path d="M26.5 52.3125C21.3948 52.3125 16.4042 50.7986 12.1594 47.9623C7.91451 45.126 4.60606 41.0946 2.65237 36.378C0.698684 31.6614 0.187511 26.4714 1.18349 21.4642C2.17947 16.4571 4.63787 11.8577 8.24782 8.2478C11.8578 4.63786 16.4571 2.17946 21.4642 1.18348C26.4714 0.187495 31.6614 0.698669 36.378 2.65236C41.0946 4.60604 45.126 7.91449 47.9623 12.1593C50.7986 16.4042 52.3125 21.3948 52.3125 26.5C52.3047 33.3435 49.5827 39.9045 44.7436 44.7436C39.9045 49.5827 33.3435 52.3047 26.5 52.3125ZM26.5 4.375C22.1241 4.375 17.8465 5.6726 14.208 8.10373C10.5696 10.5349 7.73377 13.9903 6.05918 18.0331C4.38459 22.0759 3.94644 26.5245 4.80014 30.8164C5.65384 35.1082 7.76104 39.0505 10.8553 42.1447C13.9495 45.239 17.8918 47.3462 22.1836 48.1999C26.4755 49.0536 30.9241 48.6154 34.9669 46.9408C39.0097 45.2662 42.4651 42.4304 44.8963 38.792C47.3274 35.1535 48.625 30.8759 48.625 26.5C48.6182 20.6342 46.285 15.0106 42.1372 10.8628C37.9894 6.71504 32.3658 4.38183 26.5 4.375Z" fill="#1B4DB1"/>
</svg>
