<svg width="18" height="18" viewBox="0 0 18 18" fill="none" xmlns="http://www.w3.org/2000/svg">
<path d="M12.8542 11.5834H12.0971L11.8288 11.3021C12.4277 10.5458 12.8654 9.65501 13.1106 8.69338C13.3558 7.73176 13.4024 6.72311 13.2471 5.73962C12.7967 2.84379 10.5734 0.531285 7.89004 0.177118C6.94667 0.047395 5.9885 0.153964 5.08885 0.488669C4.1892 0.823375 3.37192 1.37735 2.69954 2.10819C2.02716 2.83904 1.51751 3.72739 1.20958 4.70527C0.901651 5.68315 0.803608 6.72463 0.922954 7.75003C1.24879 10.6667 3.37629 13.0834 6.04045 13.573C6.94527 13.7418 7.87322 13.6911 8.75792 13.4246C9.64261 13.158 10.4622 12.6823 11.158 12.0313L11.4167 12.323V13.1459L15.4896 17.573C15.8825 18 16.5246 18 16.9175 17.573C17.3105 17.1459 17.3105 16.448 16.9175 16.0209L12.8542 11.5834ZM7.1042 11.5834C4.71795 11.5834 2.7917 9.48962 2.7917 6.89587C2.7917 4.30212 4.71795 2.20837 7.1042 2.20837C9.49045 2.20837 11.4167 4.30212 11.4167 6.89587C11.4167 9.48962 9.49045 11.5834 7.1042 11.5834Z" fill="#6E6A6C"/>
</svg>
